<?xml version="1.0" encoding="UTF-8" standalone="no"?>
<svg
   xmlns:dc="http://purl.org/dc/elements/1.1/"
   xmlns:cc="http://creativecommons.org/ns#"
   xmlns:rdf="http://www.w3.org/1999/02/22-rdf-syntax-ns#"
   xmlns:svg="http://www.w3.org/2000/svg"
   xmlns="http://www.w3.org/2000/svg"
   xmlns:sodipodi="http://sodipodi.sourceforge.net/DTD/sodipodi-0.dtd"
   xmlns:inkscape="http://www.inkscape.org/namespaces/inkscape"
   width="120mm"
   height="120mm"
   viewBox="-60 -60 120 120"
   sodipodi:docname="lock_icon.svg"
   version="1.1"
   id="svg1511"
   inkscape:version="1.0.2 (e86c870879, 2021-01-15, custom)">
  <defs
     id="defs1513" />
  <sodipodi:namedview
     pagecolor="#ffffff"
     bordercolor="#666666"
     borderopacity="1.0"
     inkscape:pageopacity="0.0"
     inkscape:pageshadow="2"
     inkscape:zoom="1"
     inkscape:cx="226.77165"
     inkscape:cy="226.77165"
     inkscape:document-units="mm"
     inkscape:current-layer="Template"
     showgrid="false"
     units="mm"
     showguides="true"
     inkscape:guide-bbox="true"
     inkscape:snap-global="true"
     inkscape:snap-bbox="true"
     inkscape:snap-bbox-midpoints="true"
     inkscape:window-width="1920"
     inkscape:window-height="1017"
     inkscape:window-x="-8"
     inkscape:window-y="-2"
     inkscape:window-maximized="1"
     inkscape:bbox-paths="true"
     inkscape:bbox-nodes="true"
     inkscape:snap-bbox-edge-midpoints="true"
     inkscape:snap-grids="true"
     id="namedview1501"
     inkscape:document-rotation="0">
    <sodipodi:guide
       orientation="1,0"
       position="226.771653543,226.771653543"
       id="guide2827" />
    <sodipodi:guide
       orientation="0,1"
       position="226.771653543,226.771653543"
       id="guide2829" />
    <inkscape:grid
       type="xygrid"
       id="grid3072"
       empspacing="10"
       visible="true"
       enabled="true"
       snapvisiblegridlinesonly="true"
       units="mm"
       dotted="false"
       spacingx="0.1mm"
       spacingy="0.1mm" />
  </sodipodi:namedview>
  <metadata
     id="metadata2822">
    <rdf:RDF>
      <cc:Work
         rdf:about="">
        <dc:format>image/svg+xml</dc:format>
        <dc:type
           rdf:resource="http://purl.org/dc/dcmitype/StillImage" />
        <dc:title></dc:title>
      </cc:Work>
    </rdf:RDF>
  </metadata>
  <g
     inkscape:label="Layer 1"
     inkscape:groupmode="layer"
     id="Template"
     style="fill:none;stroke:black;stroke-width:0.05">
    <g
       id="g1213"
       transform="matrix(0.34063417,0,0,0.36433312,675.28265,-1844.9001)"
       style="stroke:#ffffff;stroke-width:0.751054">
      <g
         id="g1261"
         transform="matrix(1.6777391,0,0,1.3749041,-974.51603,-1927.8488)"
         style="fill:#000000;stroke:#ffffff;stroke-width:0.494505">
        <path
           style="fill:#000000;fill-rule:evenodd;stroke:#ffffff;stroke-width:0.934499;stroke-linecap:round;paint-order:markers stroke fill"
           d="m -651.95713,5038.9842 c 2.39876,-29.5776 11.97889,-54.3485 45.72571,-61.3361 2.19882,-0.5471 4.65994,-0.7432 5.93924,-0.5824 42.04655,1.3533 50.50178,37.3801 50.65126,61.9185 0,16.1427 -0.14549,20.6237 -0.66961,20.6227 -7.50861,-4.1 -14.00621,-9.3958 -22.39051,-11.9348 -0.002,-7.7651 0.0876,-6.0696 0.0925,-11.3663 5.59951,-45.2194 -57.46979,-50.0868 -56.31409,1.103 -0.26032,3.6571 -0.0454,9.2454 -0.0454,9.2454 l -22.31949,12.9527 c 0,0 -0.66961,-4.48 -0.66961,-20.6227 z"
           id="path1257"
           sodipodi:nodetypes="scccccccccs" />
        <path
           id="path1259"
           style="fill:#000000;fill-rule:evenodd;stroke:#ffffff;stroke-width:0.934499;stroke-linecap:round;paint-order:markers stroke fill"
           d="m -601.57617,5049.9199 a 80.620888,74.99617 0 0 0 -80.6211,74.9981 80.620888,74.99617 0 0 0 80.6211,74.9961 80.620888,74.99617 0 0 0 80.62109,-74.9961 80.620888,74.99617 0 0 0 -80.62109,-74.9981 z m -0.65625,31.1289 a 22.833656,20.222183 0 0 1 22.83398,20.2227 22.833656,20.222183 0 0 1 -6.52148,14.1504 c -1.26787,1.5851 -2.05106,2.2541 -4.4375,3.9824 l -2.41016,1.7461 -0.16015,3.9805 c -1.51512,7.4326 8.62518,24.0487 5.29687,29.9296 -0.37472,0.5917 -2.82976,0.7726 -11.91016,0.877 -6.29134,0.072 -12.57247,0.024 -13.95703,-0.1055 -1.90142,-0.1779 -2.59925,-0.4905 -2.84961,-1.2793 0.13446,-13.1873 6.05175,-19.4817 5.63477,-29.2441 0,-3.2519 -0.12509,-3.6254 -1.70117,-5.0977 -0.93552,-0.8739 -2.38066,-1.9407 -3.21289,-2.3711 -0.63657,-0.3292 -1.17984,-0.7952 -1.40235,-1.1679 a 22.833656,20.222183 0 0 1 -8.03711,-15.4004 22.833656,20.222183 0 0 1 22.83399,-20.2227 z" />
      </g>
    </g>
  </g>
</svg>
