<?xml version="1.0" encoding="UTF-8" standalone="no"?>
<svg
   xmlns:dc="http://purl.org/dc/elements/1.1/"
   xmlns:cc="http://creativecommons.org/ns#"
   xmlns:rdf="http://www.w3.org/1999/02/22-rdf-syntax-ns#"
   xmlns:svg="http://www.w3.org/2000/svg"
   xmlns="http://www.w3.org/2000/svg"
   xmlns:sodipodi="http://sodipodi.sourceforge.net/DTD/sodipodi-0.dtd"
   xmlns:inkscape="http://www.inkscape.org/namespaces/inkscape"
   width="120mm"
   height="120mm"
   viewBox="-60 -60 120 120"
   sodipodi:docname="money_icon.svg"
   version="1.1"
   id="svg1511"
   inkscape:version="1.0.2 (e86c870879, 2021-01-15, custom)">
  <defs
     id="defs1513" />
  <sodipodi:namedview
     pagecolor="#ffffff"
     bordercolor="#666666"
     borderopacity="1.0"
     inkscape:pageopacity="0.0"
     inkscape:pageshadow="2"
     inkscape:zoom="1"
     inkscape:cx="409.64606"
     inkscape:cy="226.77165"
     inkscape:document-units="mm"
     inkscape:current-layer="g1227"
     showgrid="false"
     units="mm"
     showguides="true"
     inkscape:guide-bbox="true"
     inkscape:snap-global="true"
     inkscape:snap-bbox="true"
     inkscape:snap-bbox-midpoints="true"
     inkscape:window-width="1920"
     inkscape:window-height="1017"
     inkscape:window-x="-8"
     inkscape:window-y="-2"
     inkscape:window-maximized="1"
     inkscape:bbox-paths="true"
     inkscape:bbox-nodes="true"
     inkscape:snap-bbox-edge-midpoints="true"
     inkscape:snap-grids="true"
     id="namedview1501"
     inkscape:document-rotation="0">
    <sodipodi:guide
       orientation="1,0"
       position="226.771653543,226.771653543"
       id="guide2827" />
    <sodipodi:guide
       orientation="0,1"
       position="226.771653543,226.771653543"
       id="guide2829" />
    <inkscape:grid
       type="xygrid"
       id="grid3072"
       empspacing="10"
       visible="true"
       enabled="true"
       snapvisiblegridlinesonly="true"
       units="mm"
       dotted="false"
       spacingx="0.1mm"
       spacingy="0.1mm" />
  </sodipodi:namedview>
  <metadata
     id="metadata2822">
    <rdf:RDF>
      <cc:Work
         rdf:about="">
        <dc:format>image/svg+xml</dc:format>
        <dc:type
           rdf:resource="http://purl.org/dc/dcmitype/StillImage" />
        <dc:title />
      </cc:Work>
    </rdf:RDF>
  </metadata>
  <g
     inkscape:label="Layer 1"
     inkscape:groupmode="layer"
     id="Template"
     style="fill:none;stroke:black;stroke-width:0.05">
    <g
       id="g1227"
       transform="matrix(0.28718748,0,0,0.29669797,104.21847,-1259.6978)"
       style="stroke:#ffffff;stroke-width:0.906407">
      <g
         id="g1221"
         transform="matrix(2.4599824,0,0,2.2404583,275.43093,-6048.3395)"
         style="fill:#000000;stroke:#ffffff;stroke-width:0.38609">
        <path
           id="path1217"
           style="fill:#000000;stroke:#ffffff;stroke-width:0.38609px;stroke-linecap:butt;stroke-linejoin:miter;stroke-opacity:1"
           d="m -249.24219,4557.1973 3.40821,18.75 -8.52149,-17.9922 -6.06055,0.5683 -10.22851,15.1504 6.06055,-14.582 c -37.72038,17.7467 -72.39871,83.1135 -44.12891,104.9238 14.09777,9.6335 32.14053,7.3006 50.94727,7.3867 7.00757,0 36.36492,-0.7582 41.66796,-1.8945 54.52617,-26.9609 8.2089,-82.5549 -33.14453,-112.3105 z m 7.30664,39.9375 c 0.34333,0 0.6429,0.09 0.90039,0.2714 0.27896,0.1812 0.41797,0.3896 0.41797,0.625 0,0.2899 -0.46011,1.3411 -1.38281,3.1524 3.34748,1.4309 5.02148,2.5448 5.02148,3.3418 0,0.2536 -0.14096,0.4989 -0.41992,0.7344 -0.27895,0.2354 -0.55698,0.3535 -0.83594,0.3535 -0.42916,0 -1.2456,-0.4537 -2.44726,-1.3594 -0.79395,-0.5977 -1.54383,-1.0145 -2.25195,-1.25 l -4.24805,8.4492 0.67578,0.625 c 4.3131,4.2566 6.95235,6.9289 7.91797,8.0157 2.29603,2.6264 3.44336,5.2709 3.44336,7.9335 0,1.2498 -0.36417,2.491 -1.09375,3.7227 -0.70812,1.2317 -1.68511,2.2552 -2.92969,3.0703 -3.2831,2.246 -7.58461,3.3692 -12.90625,3.3692 -2.89686,0 -5.49499,-0.3173 -7.79101,-0.9512 l -1.125,2.2265 c -0.34334,0.6883 -0.59003,1.1051 -0.74024,1.25 -0.15021,0.1631 -0.40865,0.2461 -0.77344,0.2461 -0.34333,0 -0.6331,-0.083 -0.86914,-0.2461 -0.23604,-0.1449 -0.35351,-0.3256 -0.35351,-0.5429 0,-0.163 0.12922,-0.5152 0.38672,-1.0586 l 0.28906,-0.5723 0.90039,-1.9004 c -4.24872,-1.6302 -6.37305,-3.2696 -6.37305,-4.9179 0,-0.308 0.11943,-0.5717 0.35547,-0.7891 0.2575,-0.2174 0.56881,-0.3242 0.93359,-0.3242 0.45063,0 0.94402,0.3152 1.48047,0.9492 1.33041,1.5577 2.8752,2.6459 4.63477,3.2617 l 4.57031,-8.9394 c -3.0256,-3.0068 -5.2674,-5.3342 -6.72656,-6.9825 -2.91832,-3.3509 -4.37891,-6.285 -4.37891,-8.8027 0,-3.206 1.63093,-5.8156 4.89258,-7.8262 2.91832,-1.7932 6.70685,-2.6894 11.36328,-2.6894 2.44624,0 4.84858,0.308 7.20899,0.9238 l 1.25586,-2.5527 c 0.25749,-0.5434 0.59034,-0.8164 0.99804,-0.8164 z m -7.95117,4.3476 c -1.05145,0 -1.8444,0.1623 -2.38086,0.4883 -0.51499,0.3079 -0.77344,0.7801 -0.77344,1.4141 0,1.0143 1.44885,3.1867 4.34571,6.5195 l 3.76562,-7.7148 c -1.93124,-0.471 -3.5837,-0.7071 -4.95703,-0.7071 z m -5.08594,25.9473 -4.05468,8.0683 c 1.95269,0.5797 3.96933,0.8711 6.05078,0.8711 1.07291,0 1.91089,-0.1642 2.51172,-0.4902 0.60083,-0.326 0.90039,-0.787 0.90039,-1.3848 0,-0.5796 -0.51493,-1.5312 -1.54493,-2.8535 -1.00853,-1.3403 -2.29683,-2.7437 -3.86328,-4.2109 z" />
        <path
           style="fill:#000000;stroke:#ffffff;stroke-width:0.38609px;stroke-linecap:butt;stroke-linejoin:miter;stroke-opacity:1"
           d="m -269.41288,4555.1136 c 0,0 7.93943,-5.3975 17.14016,-2.2727 l 8.52272,-11.3637 -5.20833,11.9318 4.54545,1.894 20.17046,-22.1591 c 1.62078,-7.2729 -5.00678,-12.6412 -8.14394,-11.269 l -7.57576,10.6062 8.14394,-19.0342 c -5.90961,-4.6473 -27.15908,-9.5417 -42.04545,0 l 5.68181,23.4849 -8.23864,-15.4356 c -7.30855,-0.1935 -11.21386,3.3257 -12.97348,9.1856 z"
           id="path1219"
           sodipodi:nodetypes="cccccccccccccc" />
      </g>
    </g>
  </g>
</svg>
